<svg width="165" height="62" viewBox="0 0 165 62" fill="none" xmlns="http://www.w3.org/2000/svg">
<g filter="url(#filter0_f)">
<path d="M159.5 29.29C159.5 37.5743 104.5 36.79 104.5 58C104.5 36.79 5 37.5743 5 29.29C5 21.0058 56.5 21.5 56.5 4C56.5 21.5 159.5 21.0058 159.5 29.29Z" fill="#5FD0E9"/>
<path d="M56.5 4H56C56 8.08446 53.0044 11.2061 48.22 13.7271C43.4521 16.2394 37.0686 18.0655 30.633 19.6148C28.2732 20.1829 25.9027 20.7144 23.6076 21.2291C19.6753 22.1108 15.9644 22.9429 12.9084 23.824C10.486 24.5225 8.42586 25.2645 6.96278 26.1097C5.52759 26.9388 4.5 27.966 4.5 29.29C4.5 30.0812 5.09096 30.6937 5.85284 31.1689C6.63836 31.6588 7.75767 32.1006 9.13227 32.5113C11.8888 33.3348 15.8051 34.0707 20.4715 34.7825C25.4926 35.5484 31.4326 36.293 37.7833 37.0892C43.2209 37.7708 48.9596 38.4902 54.6805 39.293C67.1167 41.0382 79.5157 43.1828 88.7983 46.2065C93.4422 47.7192 97.2693 49.4406 99.9261 51.4177C102.582 53.3941 104 55.5708 104 58H104.5H105C105 52.9567 108.257 49.162 113.348 46.1619C118.438 43.1619 125.254 41.0263 132.123 39.2825C135.29 38.4785 138.457 37.7603 141.463 37.0788C141.712 37.0222 141.961 36.9659 142.208 36.9097C145.429 36.1788 148.448 35.4852 151.039 34.7702C153.623 34.0571 155.818 33.3133 157.374 32.4721C158.893 31.6516 160 30.6311 160 29.29C160 28.4908 159.384 27.8777 158.602 27.4051C157.791 26.9154 156.635 26.473 155.213 26.0623C152.361 25.2386 148.309 24.5061 143.478 23.8096C137.384 22.9311 130.003 22.1036 122.157 21.2241C117.562 20.709 112.808 20.1761 108.06 19.6045C95.1841 18.0547 82.3403 16.2202 72.7211 13.6859C67.9078 12.4178 63.9378 10.9833 61.1816 9.34173C58.4057 7.68834 57 5.9122 57 4H56.5Z" stroke="black"/>
</g>
<defs>
<filter id="filter0_f" x="0" y="0" width="164.5" height="62" filterUnits="userSpaceOnUse" color-interpolation-filters="sRGB">
<feFlood flood-opacity="0" result="BackgroundImageFix"/>
<feBlend mode="normal" in="SourceGraphic" in2="BackgroundImageFix" result="shape"/>
<feGaussianBlur stdDeviation="2" result="effect1_foregroundBlur"/>
</filter>
</defs>
</svg>
